<svg width="156" height="45" viewBox="0 0 156 45" fill="none" xmlns="http://www.w3.org/2000/svg">
<g clip-path="url(#clip0_1_99)">
<path d="M22.5 1.77331e-05C10.0725 1.77331e-05 0 10.0744 0 22.5C0 34.9275 10.0725 45 22.5 45C34.9256 45 45 34.9275 45 22.5C45.0009 20.3793 44.7023 18.2691 44.1131 16.2319C44.0027 15.9636 43.7929 15.7484 43.5275 15.6312C43.2622 15.5139 42.9618 15.5037 42.6891 15.6027C42.4164 15.7016 42.1924 15.9021 42.064 16.1623C41.9356 16.4224 41.9127 16.7221 42 16.9988H41.9963C42.4931 18.7669 42.75 20.6138 42.75 22.5C42.7573 25.1604 42.2369 27.7958 41.2189 30.2537C40.2009 32.7116 38.7056 34.9432 36.8194 36.8194C34.9433 38.7057 32.7117 40.2011 30.2538 41.2191C27.7958 42.2371 25.1604 42.7574 22.5 42.75C19.8396 42.7573 17.2042 42.2369 14.7463 41.2189C12.2884 40.201 10.0568 38.7056 8.18062 36.8194C6.29426 34.9434 4.79878 32.7118 3.78078 30.2538C2.76278 27.7959 2.24248 25.1604 2.25 22.5C2.24269 19.8396 2.76308 17.2042 3.78107 14.7463C4.79906 12.2884 6.29443 10.0568 8.18062 8.18064C10.0566 6.29428 12.2882 4.7988 14.7462 3.7808C17.2041 2.7628 19.8396 2.2425 22.5 2.25002C27.33 2.25002 31.8994 3.93002 35.5462 7.01252C35.3158 7.59754 35.2928 8.2439 35.4812 8.84379C35.6696 9.44369 36.058 9.96085 36.5816 10.309C37.1052 10.6572 37.7324 10.8153 38.3585 10.757C38.9845 10.6988 39.5717 10.4276 40.022 9.98874C40.4724 9.5499 40.7586 8.96993 40.8331 8.34557C40.9075 7.7212 40.7657 7.09019 40.4311 6.55777C40.0966 6.02534 39.5897 5.62371 38.9948 5.41985C38.4 5.21599 37.7533 5.22222 37.1625 5.43752C33.0864 1.92333 27.8818 -0.00674911 22.5 1.77331e-05ZM19.8 11.025L11.925 31.4663H16.8562L18.1444 28.0013H25.5863L24.2381 24.1725H19.3388L22.5262 15.3769L28.1963 31.4644H33.1294L25.2563 11.025H19.8Z" fill="#AAAAAA"/>
</g>
<path d="M54.3794 28H52.5328L57.8738 13.4545H59.6919L65.0328 28H63.1863L58.8397 15.7557H58.726L54.3794 28ZM55.0613 22.3182H62.5044V23.8807H55.0613V22.3182ZM66.0712 32.0909V17.0909H67.6905V18.8239H67.8894C68.0125 18.6345 68.1829 18.393 68.4007 18.0994C68.6233 17.8011 68.9405 17.536 69.3525 17.304C69.7691 17.0672 70.3326 16.9489 71.0428 16.9489C71.9614 16.9489 72.771 17.1785 73.4718 17.6378C74.1725 18.0971 74.7194 18.7481 75.1124 19.5909C75.5054 20.4337 75.7019 21.428 75.7019 22.5739C75.7019 23.7292 75.5054 24.7306 75.1124 25.5781C74.7194 26.4209 74.1749 27.0743 73.4789 27.5384C72.7828 27.9976 71.9803 28.2273 71.0712 28.2273C70.3704 28.2273 69.8094 28.1113 69.388 27.8793C68.9666 27.6425 68.6422 27.375 68.415 27.0767C68.1877 26.7737 68.0125 26.5227 67.8894 26.3239H67.7473V32.0909H66.0712ZM67.7189 22.5455C67.7189 23.3693 67.8397 24.0961 68.0811 24.7259C68.3226 25.3509 68.6754 25.8409 69.1394 26.196C69.6034 26.5464 70.1716 26.7216 70.8439 26.7216C71.5447 26.7216 72.1294 26.5369 72.5982 26.1676C73.0717 25.7936 73.4268 25.2917 73.6635 24.6619C73.905 24.0275 74.0257 23.322 74.0257 22.5455C74.0257 21.7784 73.9074 21.0871 73.6706 20.4716C73.4386 19.8513 73.0859 19.3613 72.6124 19.0014C72.1436 18.6368 71.5542 18.4545 70.8439 18.4545C70.1621 18.4545 69.5892 18.6274 69.1252 18.973C68.6612 19.3139 68.3108 19.7921 68.074 20.4077C67.8373 21.0185 67.7189 21.7311 67.7189 22.5455ZM81.6905 28.2273C80.7057 28.2273 79.8416 27.9929 79.0982 27.5241C78.3596 27.0554 77.7819 26.3996 77.3652 25.5568C76.9533 24.714 76.7473 23.7292 76.7473 22.6023C76.7473 21.4659 76.9533 20.474 77.3652 19.6264C77.7819 18.7789 78.3596 18.1207 79.0982 17.652C79.8416 17.1832 80.7057 16.9489 81.6905 16.9489C82.6754 16.9489 83.5371 17.1832 84.2757 17.652C85.0191 18.1207 85.5968 18.7789 86.0087 19.6264C86.4254 20.474 86.6337 21.4659 86.6337 22.6023C86.6337 23.7292 86.4254 24.714 86.0087 25.5568C85.5968 26.3996 85.0191 27.0554 84.2757 27.5241C83.5371 27.9929 82.6754 28.2273 81.6905 28.2273ZM81.6905 26.7216C82.4386 26.7216 83.0542 26.5298 83.5371 26.1463C84.0201 25.7628 84.3775 25.2585 84.6096 24.6335C84.8416 24.0085 84.9576 23.3314 84.9576 22.6023C84.9576 21.8731 84.8416 21.1937 84.6096 20.5639C84.3775 19.9342 84.0201 19.4252 83.5371 19.0369C83.0542 18.6487 82.4386 18.4545 81.6905 18.4545C80.9424 18.4545 80.3269 18.6487 79.8439 19.0369C79.361 19.4252 79.0035 19.9342 78.7715 20.5639C78.5395 21.1937 78.4235 21.8731 78.4235 22.6023C78.4235 23.3314 78.5395 24.0085 78.7715 24.6335C79.0035 25.2585 79.361 25.7628 79.8439 26.1463C80.3269 26.5298 80.9424 26.7216 81.6905 26.7216ZM89.8684 13.4545V28H88.1923V13.4545H89.8684ZM93.6145 13.4545V28H91.9384V13.4545H93.6145ZM100.116 28.2273C99.1315 28.2273 98.2673 27.9929 97.524 27.5241C96.7853 27.0554 96.2077 26.3996 95.791 25.5568C95.3791 24.714 95.1731 23.7292 95.1731 22.6023C95.1731 21.4659 95.3791 20.474 95.791 19.6264C96.2077 18.7789 96.7853 18.1207 97.524 17.652C98.2673 17.1832 99.1315 16.9489 100.116 16.9489C101.101 16.9489 101.963 17.1832 102.702 17.652C103.445 18.1207 104.023 18.7789 104.434 19.6264C104.851 20.474 105.059 21.4659 105.059 22.6023C105.059 23.7292 104.851 24.714 104.434 25.5568C104.023 26.3996 103.445 27.0554 102.702 27.5241C101.963 27.9929 101.101 28.2273 100.116 28.2273ZM100.116 26.7216C100.864 26.7216 101.48 26.5298 101.963 26.1463C102.446 25.7628 102.803 25.2585 103.035 24.6335C103.267 24.0085 103.383 23.3314 103.383 22.6023C103.383 21.8731 103.267 21.1937 103.035 20.5639C102.803 19.9342 102.446 19.4252 101.963 19.0369C101.48 18.6487 100.864 18.4545 100.116 18.4545C99.3682 18.4545 98.7527 18.6487 98.2697 19.0369C97.7868 19.4252 97.4293 19.9342 97.1973 20.5639C96.9653 21.1937 96.8493 21.8731 96.8493 22.6023C96.8493 23.3314 96.9653 24.0085 97.1973 24.6335C97.4293 25.2585 97.7868 25.7628 98.2697 26.1463C98.7527 26.5298 99.3682 26.7216 100.116 26.7216ZM115.675 28.2273C114.652 28.2273 113.771 27.9858 113.033 27.5028C112.294 27.0199 111.726 26.3546 111.328 25.5071C110.931 24.6596 110.732 23.6913 110.732 22.6023C110.732 21.4943 110.935 20.5166 111.343 19.669C111.754 18.8168 112.327 18.1515 113.061 17.6733C113.8 17.1903 114.662 16.9489 115.646 16.9489C116.414 16.9489 117.105 17.0909 117.72 17.375C118.336 17.6591 118.84 18.0568 119.233 18.5682C119.626 19.0795 119.87 19.6761 119.965 20.358H118.289C118.161 19.8608 117.877 19.4205 117.436 19.0369C117.001 18.6487 116.414 18.4545 115.675 18.4545C115.021 18.4545 114.449 18.625 113.956 18.9659C113.468 19.3021 113.087 19.7779 112.813 20.3935C112.543 21.0043 112.408 21.7216 112.408 22.5455C112.408 23.3883 112.54 24.1222 112.806 24.7472C113.075 25.3722 113.454 25.8575 113.942 26.2031C114.434 26.5488 115.012 26.7216 115.675 26.7216C116.11 26.7216 116.506 26.6458 116.861 26.4943C117.216 26.3428 117.517 26.125 117.763 25.8409C118.009 25.5568 118.184 25.2159 118.289 24.8182H119.965C119.87 25.4621 119.636 26.0421 119.262 26.5582C118.892 27.0696 118.402 27.4768 117.791 27.7798C117.185 28.0781 116.48 28.2273 115.675 28.2273ZM123.091 13.4545V28H121.415V13.4545H123.091ZM125.161 28V17.0909H126.837V28H125.161ZM126.013 15.2727C125.687 15.2727 125.405 15.1615 125.168 14.9389C124.936 14.7164 124.82 14.4489 124.82 14.1364C124.82 13.8239 124.936 13.5563 125.168 13.3338C125.405 13.1113 125.687 13 126.013 13C126.34 13 126.619 13.1113 126.851 13.3338C127.088 13.5563 127.206 13.8239 127.206 14.1364C127.206 14.4489 127.088 14.7164 126.851 14.9389C126.619 15.1615 126.34 15.2727 126.013 15.2727ZM133.481 28.2273C132.43 28.2273 131.523 27.9953 130.761 27.5312C130.003 27.0625 129.419 26.4091 129.007 25.571C128.599 24.7282 128.396 23.7481 128.396 22.6307C128.396 21.5133 128.599 20.5284 129.007 19.6761C129.419 18.8191 129.991 18.1515 130.725 17.6733C131.464 17.1903 132.326 16.9489 133.311 16.9489C133.879 16.9489 134.44 17.0436 134.994 17.233C135.548 17.4223 136.052 17.7301 136.507 18.1562C136.961 18.5777 137.323 19.1364 137.593 19.8324C137.863 20.5284 137.998 21.3854 137.998 22.4034V23.1136H129.589V21.6648H136.294C136.294 21.0492 136.17 20.5 135.924 20.017C135.683 19.5341 135.337 19.1529 134.887 18.8736C134.442 18.5942 133.917 18.4545 133.311 18.4545C132.643 18.4545 132.065 18.6203 131.578 18.9517C131.095 19.2784 130.723 19.7045 130.463 20.2301C130.202 20.7557 130.072 21.3191 130.072 21.9205V22.8864C130.072 23.7102 130.214 24.4086 130.498 24.9815C130.787 25.5497 131.187 25.983 131.698 26.2812C132.21 26.5748 132.804 26.7216 133.481 26.7216C133.921 26.7216 134.319 26.66 134.674 26.5369C135.034 26.4091 135.344 26.2197 135.605 25.9688C135.865 25.7131 136.066 25.3958 136.208 25.017L137.828 25.4716C137.657 26.0208 137.371 26.5038 136.968 26.9205C136.566 27.3324 136.069 27.6544 135.477 27.8864C134.885 28.1136 134.22 28.2273 133.481 28.2273ZM141.224 21.4375V28H139.548V17.0909H141.167V18.7955H141.309C141.565 18.2415 141.953 17.7964 142.474 17.4602C142.995 17.1193 143.667 16.9489 144.491 16.9489C145.23 16.9489 145.876 17.1004 146.43 17.4034C146.984 17.7017 147.415 18.1562 147.722 18.767C148.03 19.3731 148.184 20.1402 148.184 21.0682V28H146.508V21.1818C146.508 20.3248 146.285 19.6572 145.84 19.179C145.395 18.696 144.785 18.4545 144.008 18.4545C143.473 18.4545 142.995 18.5705 142.573 18.8026C142.157 19.0346 141.828 19.3731 141.586 19.8182C141.345 20.2633 141.224 20.803 141.224 21.4375ZM154.991 17.0909V18.5114H149.338V17.0909H154.991ZM150.986 14.4773H152.662V24.875C152.662 25.3485 152.73 25.7036 152.868 25.9403C153.01 26.1723 153.19 26.3286 153.407 26.4091C153.63 26.4848 153.864 26.5227 154.111 26.5227C154.295 26.5227 154.447 26.5133 154.565 26.4943C154.684 26.4706 154.778 26.4517 154.849 26.4375L155.19 27.9432C155.077 27.9858 154.918 28.0284 154.714 28.071C154.511 28.1184 154.253 28.142 153.94 28.142C153.467 28.142 153.003 28.0402 152.548 27.8366C152.098 27.633 151.724 27.3229 151.426 26.9062C151.132 26.4896 150.986 25.964 150.986 25.3295V14.4773Z" fill="#AAAAAA"/>
<defs>
<clipPath id="clip0_1_99">
<rect width="45" height="45" fill="white"/>
</clipPath>
</defs>
</svg>
